<svg width="18" height="18" viewBox="0 0 18 18" fill="none" xmlns="http://www.w3.org/2000/svg">
<path d="M3.75 5.25H14.0925C14.3021 5.25001 14.5093 5.29393 14.7009 5.37893C14.8924 5.46393 15.064 5.58813 15.2046 5.74351C15.3453 5.8989 15.4518 6.08202 15.5173 6.28108C15.5828 6.48014 15.6059 6.69073 15.585 6.89925L15.135 11.3993C15.098 11.7694 14.9248 12.1126 14.649 12.3622C14.3732 12.6118 14.0145 12.75 13.6425 12.75H6.48C6.1331 12.7501 5.79688 12.63 5.52858 12.4101C5.26028 12.1903 5.07649 11.8842 5.0085 11.544L3.75 5.25Z" stroke="white" stroke-width="2" stroke-linejoin="round"/>
<path d="M3.75 5.25L3.1425 2.81775C3.10187 2.65557 3.00821 2.51161 2.87641 2.40874C2.7446 2.30588 2.5822 2.25 2.415 2.25H1.5M6 15.75H7.5M12 15.75H13.5" stroke="white" stroke-width="2" stroke-linecap="round" stroke-linejoin="round"/>
</svg>
