<svg width="80" height="80" viewBox="0 0 80 80" fill="none" xmlns="http://www.w3.org/2000/svg">
<path d="M18.8262 27.6563C19.9975 37.6088 29.0287 46.3325 40.0075 46.3325C51.7825 46.3325 61.3262 36.3025 61.3262 25.4788C61.3262 25.3863 61.32 25.2963 61.3187 25.2075C49.1712 23.5588 33.695 32.385 18.8262 27.6563Z" fill="#58181F"/>
<path d="M67.5 25.5562C67.5 11.3025 60.365 2.5025 60.3638 2.5H19.635C19.635 2.5 12.5 11.315 12.5 25.5562C12.5 39.0913 24.07 51.6637 38.6188 52.4175C38.4488 60.2775 37.78 68.4625 35.855 71.2975C33.1437 75.2925 23.6413 73.24 23.6413 77.5H56.3625C56.3625 73.2387 46.8563 75.2925 44.145 71.2975C42.22 68.4625 41.5512 60.2787 41.3812 52.4175C55.9263 51.665 67.5 39.0913 67.5 25.5562ZM40 49.0675C27.7575 49.0675 17.6875 39.3413 16.3825 28.245C16.2845 27.4399 16.234 26.6298 16.2312 25.8188C16.2312 13.5063 22.3975 5.88875 22.3975 5.88875H57.6012C57.6025 5.8925 63.6587 13.375 63.76 25.5163C63.7612 25.6163 63.7687 25.715 63.7687 25.8188C63.7687 37.885 53.1275 49.0675 40 49.0675Z" fill="#58181F"/>
</svg>
